<svg xmlns="http://www.w3.org/2000/svg" xmlns:xlink="http://www.w3.org/1999/xlink" width="500" zoomAndPan="magnify" viewBox="0 0 375 374.999991" height="500" preserveAspectRatio="xMidYMid meet" version="1.0"><defs><g/><clipPath id="3eb4dd3749"><path d="M 144.175781 84.527344 L 231 84.527344 L 231 229 L 144.175781 229 Z M 144.175781 84.527344 " clip-rule="nonzero"/></clipPath></defs><g clip-path="url(#3eb4dd3749)"><path fill="#01402e" d="M 150.695312 169.078125 L 151.207031 199 L 151.722656 228.921875 L 149.660156 228.921875 L 150.171875 199 Z M 156.144531 165.597656 L 156.65625 197.261719 L 157.171875 228.921875 L 155.109375 228.921875 L 155.628906 197.261719 Z M 166.527344 102.089844 L 167.042969 165.507812 L 167.558594 228.921875 L 165.496094 228.921875 L 166.011719 165.507812 Z M 171.664062 99.808594 L 172.175781 164.363281 L 172.691406 228.921875 L 170.628906 228.921875 L 171.144531 164.363281 Z M 176.800781 96.609375 L 177.3125 162.765625 L 177.828125 228.921875 L 175.765625 228.921875 L 176.277344 162.765625 Z M 181.9375 94.554688 L 182.449219 161.738281 L 182.964844 228.921875 L 180.902344 228.921875 L 181.414062 161.738281 Z M 187.070312 91.816406 L 187.582031 160.371094 L 188.097656 228.921875 L 186.035156 228.921875 L 186.546875 160.371094 Z M 208.75 139.40625 L 209.261719 184.164062 L 209.777344 228.921875 L 207.714844 228.921875 L 208.226562 184.164062 Z M 213.996094 142.605469 L 214.511719 185.761719 L 215.023438 228.921875 L 212.960938 228.921875 L 213.476562 185.761719 Z M 219.246094 145.457031 L 219.761719 187.191406 L 220.273438 228.925781 L 218.210938 228.925781 L 218.726562 187.191406 Z M 224.496094 147.738281 L 225.007812 188.328125 L 225.523438 228.921875 L 223.460938 228.921875 L 223.972656 188.328125 Z M 229.746094 149.566406 L 230.261719 189.246094 L 230.773438 228.925781 L 228.714844 228.925781 L 229.226562 189.246094 Z M 193.03125 89.433594 L 194.0625 146.902344 L 191.996094 146.902344 L 192.511719 118.167969 Z M 198.253906 86.640625 L 199.285156 144.25 L 197.222656 144.25 L 197.734375 115.445312 Z M 203.476562 84.527344 L 203.988281 112.933594 L 204.503906 141.335938 L 202.445312 141.335938 L 202.957031 112.933594 Z M 145.246094 171.390625 L 145.757812 200.15625 L 146.273438 228.921875 L 144.214844 228.921875 L 144.726562 200.15625 Z M 145.246094 171.390625 " fill-opacity="1" fill-rule="evenodd"/></g><g fill="#01402e" fill-opacity="1"><g transform="translate(43.500002, 263.319842)"><g><path d="M 23.84375 -9.828125 L 17.609375 -9.828125 L 17.609375 -8.53125 L 21.140625 -8.53125 L 21.140625 -2.828125 C 20.191406 -2.222656 19.222656 -1.773438 18.234375 -1.484375 C 17.253906 -1.191406 16.132812 -1.046875 14.875 -1.046875 C 13.207031 -1.046875 11.753906 -1.296875 10.515625 -1.796875 C 9.273438 -2.296875 8.242188 -2.992188 7.421875 -3.890625 C 6.609375 -4.785156 6 -5.847656 5.59375 -7.078125 C 5.1875 -8.304688 4.984375 -9.65625 4.984375 -11.125 C 4.984375 -12.570312 5.175781 -13.90625 5.5625 -15.125 C 5.945312 -16.34375 6.523438 -17.390625 7.296875 -18.265625 C 8.078125 -19.148438 9.03125 -19.832031 10.15625 -20.3125 C 11.28125 -20.800781 12.585938 -21.046875 14.078125 -21.046875 C 15.066406 -21.046875 15.988281 -20.9375 16.84375 -20.71875 C 17.707031 -20.507812 18.472656 -20.238281 19.140625 -19.90625 C 19.816406 -19.570312 20.367188 -19.1875 20.796875 -18.75 C 21.234375 -18.320312 21.515625 -17.890625 21.640625 -17.453125 L 23.90625 -17.453125 C 23.71875 -17.910156 23.394531 -18.425781 22.9375 -19 C 22.488281 -19.582031 21.875 -20.125 21.09375 -20.625 C 20.320312 -21.132812 19.363281 -21.5625 18.21875 -21.90625 C 17.070312 -22.25 15.722656 -22.421875 14.171875 -22.421875 C 12.390625 -22.421875 10.75 -22.171875 9.25 -21.671875 C 7.75 -21.171875 6.453125 -20.445312 5.359375 -19.5 C 4.265625 -18.550781 3.410156 -17.390625 2.796875 -16.015625 C 2.191406 -14.640625 1.890625 -13.082031 1.890625 -11.34375 C 1.890625 -9.851562 2.125 -8.40625 2.59375 -7 C 3.070312 -5.601562 3.796875 -4.351562 4.765625 -3.25 C 5.742188 -2.15625 6.988281 -1.273438 8.5 -0.609375 C 10.007812 0.046875 11.816406 0.375 13.921875 0.375 C 15.492188 0.375 16.890625 0.203125 18.109375 -0.140625 C 19.328125 -0.484375 20.335938 -0.867188 21.140625 -1.296875 L 21.140625 0 L 23.84375 0 Z M 23.84375 -9.828125 "/></g></g></g><g fill="#01402e" fill-opacity="1"><g transform="translate(69.235531, 263.319842)"><g><path d="M 3.78125 0 L 3.78125 -22.046875 L 6.640625 -22.046875 L 6.640625 -1.734375 L 18.015625 -1.734375 L 18.015625 0 Z M 3.78125 0 "/></g></g></g><g fill="#01402e" fill-opacity="1"><g transform="translate(88.19855, 263.319842)"><g><path d="M 1.578125 -11.03125 C 1.578125 -9.851562 1.800781 -8.597656 2.25 -7.265625 C 2.695312 -5.929688 3.40625 -4.695312 4.375 -3.5625 C 5.34375 -2.425781 6.570312 -1.484375 8.0625 -0.734375 C 9.550781 0.00390625 11.335938 0.375 13.421875 0.375 C 14.828125 0.375 16.101562 0.203125 17.25 -0.140625 C 18.394531 -0.484375 19.421875 -0.945312 20.328125 -1.53125 C 21.242188 -2.125 22.035156 -2.800781 22.703125 -3.5625 C 23.378906 -4.332031 23.929688 -5.144531 24.359375 -6 C 24.796875 -6.851562 25.125 -7.707031 25.34375 -8.5625 C 25.5625 -9.425781 25.671875 -10.25 25.671875 -11.03125 C 25.671875 -12.195312 25.425781 -13.445312 24.9375 -14.78125 C 24.457031 -16.125 23.710938 -17.359375 22.703125 -18.484375 C 21.703125 -19.617188 20.425781 -20.554688 18.875 -21.296875 C 17.332031 -22.046875 15.515625 -22.421875 13.421875 -22.421875 C 11.335938 -22.421875 9.550781 -22.050781 8.0625 -21.3125 C 6.570312 -20.582031 5.34375 -19.65625 4.375 -18.53125 C 3.40625 -17.414062 2.695312 -16.1875 2.25 -14.84375 C 1.800781 -13.5 1.578125 -12.226562 1.578125 -11.03125 Z M 4.65625 -11.03125 C 4.65625 -12.5 4.878906 -13.847656 5.328125 -15.078125 C 5.785156 -16.304688 6.40625 -17.359375 7.1875 -18.234375 C 7.976562 -19.117188 8.910156 -19.804688 9.984375 -20.296875 C 11.054688 -20.796875 12.222656 -21.046875 13.484375 -21.046875 C 14.722656 -21.046875 15.890625 -20.796875 16.984375 -20.296875 C 18.085938 -19.804688 19.054688 -19.117188 19.890625 -18.234375 C 20.722656 -17.359375 21.378906 -16.304688 21.859375 -15.078125 C 22.335938 -13.847656 22.578125 -12.5 22.578125 -11.03125 C 22.578125 -9.550781 22.335938 -8.195312 21.859375 -6.96875 C 21.378906 -5.75 20.722656 -4.695312 19.890625 -3.8125 C 19.054688 -2.925781 18.085938 -2.238281 16.984375 -1.75 C 15.890625 -1.257812 14.722656 -1.015625 13.484375 -1.015625 C 12.222656 -1.015625 11.054688 -1.257812 9.984375 -1.75 C 8.910156 -2.238281 7.976562 -2.925781 7.1875 -3.8125 C 6.40625 -4.695312 5.785156 -5.75 5.328125 -6.96875 C 4.878906 -8.195312 4.65625 -9.550781 4.65625 -11.03125 Z M 4.65625 -11.03125 "/></g></g></g><g fill="#01402e" fill-opacity="1"><g transform="translate(115.446084, 263.319842)"><g><path d="M 3.78125 0 L 11.6875 0 C 13.09375 0 14.273438 -0.179688 15.234375 -0.546875 C 16.203125 -0.921875 16.976562 -1.398438 17.5625 -1.984375 C 18.15625 -2.566406 18.582031 -3.234375 18.84375 -3.984375 C 19.113281 -4.734375 19.25 -5.484375 19.25 -6.234375 C 19.25 -7.429688 18.988281 -8.382812 18.46875 -9.09375 C 17.957031 -9.8125 17.34375 -10.359375 16.625 -10.734375 C 15.914062 -11.117188 15.179688 -11.375 14.421875 -11.5 C 13.671875 -11.625 13.0625 -11.695312 12.59375 -11.71875 L 12.59375 -11.84375 C 13.332031 -11.84375 14.023438 -11.984375 14.671875 -12.265625 C 15.328125 -12.546875 15.898438 -12.910156 16.390625 -13.359375 C 16.890625 -13.816406 17.285156 -14.34375 17.578125 -14.9375 C 17.867188 -15.539062 18.015625 -16.179688 18.015625 -16.859375 C 18.015625 -17.441406 17.890625 -18.035156 17.640625 -18.640625 C 17.390625 -19.253906 17.003906 -19.8125 16.484375 -20.3125 C 15.972656 -20.820312 15.3125 -21.238281 14.5 -21.5625 C 13.695312 -21.882812 12.75 -22.046875 11.65625 -22.046875 L 3.78125 -22.046875 Z M 6.640625 -1.390625 L 6.640625 -11.03125 L 10.109375 -11.03125 C 11.140625 -11.03125 12.03125 -10.890625 12.78125 -10.609375 C 13.539062 -10.335938 14.164062 -9.96875 14.65625 -9.5 C 15.15625 -9.039062 15.523438 -8.507812 15.765625 -7.90625 C 16.003906 -7.300781 16.125 -6.660156 16.125 -5.984375 C 16.125 -5.242188 15.992188 -4.59375 15.734375 -4.03125 C 15.472656 -3.46875 15.117188 -2.984375 14.671875 -2.578125 C 14.234375 -2.179688 13.710938 -1.882812 13.109375 -1.6875 C 12.515625 -1.488281 11.882812 -1.390625 11.21875 -1.390625 Z M 6.640625 -12.40625 L 6.640625 -20.671875 L 10.484375 -20.671875 C 11.304688 -20.671875 12.003906 -20.550781 12.578125 -20.3125 C 13.160156 -20.082031 13.632812 -19.78125 14 -19.40625 C 14.363281 -19.03125 14.628906 -18.597656 14.796875 -18.109375 C 14.972656 -17.628906 15.0625 -17.144531 15.0625 -16.65625 C 15.0625 -16.050781 14.9375 -15.484375 14.6875 -14.953125 C 14.445312 -14.429688 14.113281 -13.984375 13.6875 -13.609375 C 13.257812 -13.234375 12.765625 -12.9375 12.203125 -12.71875 C 11.648438 -12.507812 11.054688 -12.40625 10.421875 -12.40625 Z M 6.640625 -12.40625 "/></g></g></g><g fill="#01402e" fill-opacity="1"><g transform="translate(136.267612, 263.319842)"><g><path d="M 16.03125 -6.484375 L 19.0625 0 L 22.109375 0 L 11.84375 -22.046875 L 10.265625 -22.046875 L 0.9375 0 L 2.390625 0 L 5.171875 -6.484375 Z M 15.375 -7.90625 L 5.765625 -7.90625 L 10.296875 -18.515625 L 10.421875 -18.515625 Z M 15.375 -7.90625 "/></g></g></g><g fill="#01402e" fill-opacity="1"><g transform="translate(159.325636, 263.319842)"><g><path d="M 3.78125 0 L 3.78125 -22.046875 L 6.640625 -22.046875 L 6.640625 -1.734375 L 18.015625 -1.734375 L 18.015625 0 Z M 3.78125 0 "/></g></g></g><g fill="#01402e" fill-opacity="1"><g transform="translate(178.288655, 263.319842)"><g/></g></g><g fill="#01402e" fill-opacity="1"><g transform="translate(189.313663, 263.319842)"><g><path d="M 22.328125 -4.0625 C 20.191406 -2.050781 17.648438 -1.046875 14.703125 -1.046875 C 13.066406 -1.046875 11.617188 -1.328125 10.359375 -1.890625 C 9.097656 -2.453125 8.046875 -3.207031 7.203125 -4.15625 C 6.367188 -5.101562 5.734375 -6.195312 5.296875 -7.4375 C 4.867188 -8.675781 4.65625 -9.96875 4.65625 -11.3125 C 4.65625 -12.738281 4.878906 -14.046875 5.328125 -15.234375 C 5.785156 -16.421875 6.421875 -17.441406 7.234375 -18.296875 C 8.054688 -19.160156 9.03125 -19.832031 10.15625 -20.3125 C 11.28125 -20.800781 12.503906 -21.046875 13.828125 -21.046875 C 14.734375 -21.046875 15.554688 -20.9375 16.296875 -20.71875 C 17.046875 -20.507812 17.707031 -20.238281 18.28125 -19.90625 C 18.863281 -19.570312 19.335938 -19.1875 19.703125 -18.75 C 20.066406 -18.320312 20.320312 -17.890625 20.46875 -17.453125 L 22.8125 -17.453125 C 22.488281 -18.160156 22.082031 -18.816406 21.59375 -19.421875 C 21.101562 -20.035156 20.488281 -20.5625 19.75 -21 C 19.007812 -21.445312 18.144531 -21.796875 17.15625 -22.046875 C 16.175781 -22.296875 15.054688 -22.421875 13.796875 -22.421875 C 11.972656 -22.421875 10.304688 -22.160156 8.796875 -21.640625 C 7.296875 -21.117188 6.007812 -20.367188 4.9375 -19.390625 C 3.875 -18.410156 3.046875 -17.234375 2.453125 -15.859375 C 1.867188 -14.484375 1.578125 -12.945312 1.578125 -11.25 C 1.578125 -9.78125 1.8125 -8.34375 2.28125 -6.9375 C 2.757812 -5.539062 3.488281 -4.300781 4.46875 -3.21875 C 5.457031 -2.144531 6.71875 -1.273438 8.25 -0.609375 C 9.78125 0.046875 11.609375 0.375 13.734375 0.375 C 15.078125 0.375 16.28125 0.25 17.34375 0 C 18.40625 -0.25 19.328125 -0.554688 20.109375 -0.921875 C 20.898438 -1.296875 21.554688 -1.691406 22.078125 -2.109375 C 22.609375 -2.523438 23.007812 -2.894531 23.28125 -3.21875 Z M 22.328125 -4.0625 "/></g></g></g><g fill="#01402e" fill-opacity="1"><g transform="translate(213.222189, 263.319842)"><g><path d="M 3.78125 0 L 3.78125 -22.046875 L 6.640625 -22.046875 L 6.640625 -1.734375 L 18.015625 -1.734375 L 18.015625 0 Z M 3.78125 0 "/></g></g></g><g fill="#01402e" fill-opacity="1"><g transform="translate(232.185208, 263.319842)"><g><path d="M 16.03125 -6.484375 L 19.0625 0 L 22.109375 0 L 11.84375 -22.046875 L 10.265625 -22.046875 L 0.9375 0 L 2.390625 0 L 5.171875 -6.484375 Z M 15.375 -7.90625 L 5.765625 -7.90625 L 10.296875 -18.515625 L 10.421875 -18.515625 Z M 15.375 -7.90625 "/></g></g></g><g fill="#01402e" fill-opacity="1"><g transform="translate(255.243243, 263.319842)"><g><path d="M 1.171875 -5.578125 C 1.210938 -4.671875 1.445312 -3.847656 1.875 -3.109375 C 2.300781 -2.378906 2.882812 -1.753906 3.625 -1.234375 C 4.375 -0.722656 5.253906 -0.328125 6.265625 -0.046875 C 7.273438 0.234375 8.378906 0.375 9.578125 0.375 C 10.796875 0.375 11.890625 0.226562 12.859375 -0.0625 C 13.835938 -0.351562 14.671875 -0.769531 15.359375 -1.3125 C 16.054688 -1.863281 16.59375 -2.523438 16.96875 -3.296875 C 17.351562 -4.078125 17.546875 -4.941406 17.546875 -5.890625 C 17.546875 -7.191406 17.21875 -8.253906 16.5625 -9.078125 C 15.914062 -9.910156 15.101562 -10.601562 14.125 -11.15625 C 13.144531 -11.71875 12.082031 -12.1875 10.9375 -12.5625 C 9.800781 -12.945312 8.742188 -13.347656 7.765625 -13.765625 C 6.785156 -14.179688 5.96875 -14.660156 5.3125 -15.203125 C 4.664062 -15.753906 4.34375 -16.484375 4.34375 -17.390625 C 4.34375 -17.890625 4.453125 -18.359375 4.671875 -18.796875 C 4.898438 -19.242188 5.226562 -19.628906 5.65625 -19.953125 C 6.082031 -20.273438 6.609375 -20.535156 7.234375 -20.734375 C 7.867188 -20.941406 8.597656 -21.046875 9.421875 -21.046875 C 10.785156 -21.046875 11.941406 -20.753906 12.890625 -20.171875 C 13.847656 -19.597656 14.410156 -18.691406 14.578125 -17.453125 L 16.71875 -17.453125 C 16.59375 -18.222656 16.3125 -18.914062 15.875 -19.53125 C 15.4375 -20.15625 14.878906 -20.679688 14.203125 -21.109375 C 13.535156 -21.546875 12.773438 -21.875 11.921875 -22.09375 C 11.066406 -22.3125 10.179688 -22.421875 9.265625 -22.421875 C 8.296875 -22.421875 7.375 -22.296875 6.5 -22.046875 C 5.632812 -21.796875 4.867188 -21.425781 4.203125 -20.9375 C 3.546875 -20.457031 3.019531 -19.847656 2.625 -19.109375 C 2.238281 -18.378906 2.046875 -17.539062 2.046875 -16.59375 C 2.046875 -15.351562 2.359375 -14.351562 2.984375 -13.59375 C 3.617188 -12.84375 4.410156 -12.21875 5.359375 -11.71875 C 6.316406 -11.21875 7.351562 -10.785156 8.46875 -10.421875 C 9.582031 -10.066406 10.617188 -9.660156 11.578125 -9.203125 C 12.535156 -8.753906 13.328125 -8.203125 13.953125 -7.546875 C 14.585938 -6.898438 14.90625 -6.035156 14.90625 -4.953125 C 14.90625 -3.578125 14.40625 -2.578125 13.40625 -1.953125 C 12.40625 -1.328125 11.078125 -1.015625 9.421875 -1.015625 C 8.097656 -1.015625 7.035156 -1.1875 6.234375 -1.53125 C 5.441406 -1.875 4.832031 -2.285156 4.40625 -2.765625 C 3.988281 -3.253906 3.707031 -3.753906 3.5625 -4.265625 C 3.414062 -4.785156 3.332031 -5.222656 3.3125 -5.578125 Z M 1.171875 -5.578125 "/></g></g><g transform="translate(274.930742, 263.319842)"><g><path d="M 1.171875 -5.578125 C 1.210938 -4.671875 1.445312 -3.847656 1.875 -3.109375 C 2.300781 -2.378906 2.882812 -1.753906 3.625 -1.234375 C 4.375 -0.722656 5.253906 -0.328125 6.265625 -0.046875 C 7.273438 0.234375 8.378906 0.375 9.578125 0.375 C 10.796875 0.375 11.890625 0.226562 12.859375 -0.0625 C 13.835938 -0.351562 14.671875 -0.769531 15.359375 -1.3125 C 16.054688 -1.863281 16.59375 -2.523438 16.96875 -3.296875 C 17.351562 -4.078125 17.546875 -4.941406 17.546875 -5.890625 C 17.546875 -7.191406 17.21875 -8.253906 16.5625 -9.078125 C 15.914062 -9.910156 15.101562 -10.601562 14.125 -11.15625 C 13.144531 -11.71875 12.082031 -12.1875 10.9375 -12.5625 C 9.800781 -12.945312 8.742188 -13.347656 7.765625 -13.765625 C 6.785156 -14.179688 5.96875 -14.660156 5.3125 -15.203125 C 4.664062 -15.753906 4.34375 -16.484375 4.34375 -17.390625 C 4.34375 -17.890625 4.453125 -18.359375 4.671875 -18.796875 C 4.898438 -19.242188 5.226562 -19.628906 5.65625 -19.953125 C 6.082031 -20.273438 6.609375 -20.535156 7.234375 -20.734375 C 7.867188 -20.941406 8.597656 -21.046875 9.421875 -21.046875 C 10.785156 -21.046875 11.941406 -20.753906 12.890625 -20.171875 C 13.847656 -19.597656 14.410156 -18.691406 14.578125 -17.453125 L 16.71875 -17.453125 C 16.59375 -18.222656 16.3125 -18.914062 15.875 -19.53125 C 15.4375 -20.15625 14.878906 -20.679688 14.203125 -21.109375 C 13.535156 -21.546875 12.773438 -21.875 11.921875 -22.09375 C 11.066406 -22.3125 10.179688 -22.421875 9.265625 -22.421875 C 8.296875 -22.421875 7.375 -22.296875 6.5 -22.046875 C 5.632812 -21.796875 4.867188 -21.425781 4.203125 -20.9375 C 3.546875 -20.457031 3.019531 -19.847656 2.625 -19.109375 C 2.238281 -18.378906 2.046875 -17.539062 2.046875 -16.59375 C 2.046875 -15.351562 2.359375 -14.351562 2.984375 -13.59375 C 3.617188 -12.84375 4.410156 -12.21875 5.359375 -11.71875 C 6.316406 -11.21875 7.351562 -10.785156 8.46875 -10.421875 C 9.582031 -10.066406 10.617188 -9.660156 11.578125 -9.203125 C 12.535156 -8.753906 13.328125 -8.203125 13.953125 -7.546875 C 14.585938 -6.898438 14.90625 -6.035156 14.90625 -4.953125 C 14.90625 -3.578125 14.40625 -2.578125 13.40625 -1.953125 C 12.40625 -1.328125 11.078125 -1.015625 9.421875 -1.015625 C 8.097656 -1.015625 7.035156 -1.1875 6.234375 -1.53125 C 5.441406 -1.875 4.832031 -2.285156 4.40625 -2.765625 C 3.988281 -3.253906 3.707031 -3.753906 3.5625 -4.265625 C 3.414062 -4.785156 3.332031 -5.222656 3.3125 -5.578125 Z M 1.171875 -5.578125 "/></g></g></g><g fill="#01402e" fill-opacity="1"><g transform="translate(294.618286, 263.319842)"><g><path d="M 5.046875 -22.046875 L 5.046875 0 L 7.90625 0 L 7.90625 -22.046875 Z M 5.046875 -22.046875 "/></g></g></g><g fill="#01402e" fill-opacity="1"><g transform="translate(307.564803, 263.319842)"><g><path d="M 22.328125 -4.0625 C 20.191406 -2.050781 17.648438 -1.046875 14.703125 -1.046875 C 13.066406 -1.046875 11.617188 -1.328125 10.359375 -1.890625 C 9.097656 -2.453125 8.046875 -3.207031 7.203125 -4.15625 C 6.367188 -5.101562 5.734375 -6.195312 5.296875 -7.4375 C 4.867188 -8.675781 4.65625 -9.96875 4.65625 -11.3125 C 4.65625 -12.738281 4.878906 -14.046875 5.328125 -15.234375 C 5.785156 -16.421875 6.421875 -17.441406 7.234375 -18.296875 C 8.054688 -19.160156 9.03125 -19.832031 10.15625 -20.3125 C 11.28125 -20.800781 12.503906 -21.046875 13.828125 -21.046875 C 14.734375 -21.046875 15.554688 -20.9375 16.296875 -20.71875 C 17.046875 -20.507812 17.707031 -20.238281 18.28125 -19.90625 C 18.863281 -19.570312 19.335938 -19.1875 19.703125 -18.75 C 20.066406 -18.320312 20.320312 -17.890625 20.46875 -17.453125 L 22.8125 -17.453125 C 22.488281 -18.160156 22.082031 -18.816406 21.59375 -19.421875 C 21.101562 -20.035156 20.488281 -20.5625 19.75 -21 C 19.007812 -21.445312 18.144531 -21.796875 17.15625 -22.046875 C 16.175781 -22.296875 15.054688 -22.421875 13.796875 -22.421875 C 11.972656 -22.421875 10.304688 -22.160156 8.796875 -21.640625 C 7.296875 -21.117188 6.007812 -20.367188 4.9375 -19.390625 C 3.875 -18.410156 3.046875 -17.234375 2.453125 -15.859375 C 1.867188 -14.484375 1.578125 -12.945312 1.578125 -11.25 C 1.578125 -9.78125 1.8125 -8.34375 2.28125 -6.9375 C 2.757812 -5.539062 3.488281 -4.300781 4.46875 -3.21875 C 5.457031 -2.144531 6.71875 -1.273438 8.25 -0.609375 C 9.78125 0.046875 11.609375 0.375 13.734375 0.375 C 15.078125 0.375 16.28125 0.25 17.34375 0 C 18.40625 -0.25 19.328125 -0.554688 20.109375 -0.921875 C 20.898438 -1.296875 21.554688 -1.691406 22.078125 -2.109375 C 22.609375 -2.523438 23.007812 -2.894531 23.28125 -3.21875 Z M 22.328125 -4.0625 "/></g></g></g><g fill="#01402e" fill-opacity="1"><g transform="translate(117.232003, 285.2684)"><g><path d="M 3.804688 0 C 5.019531 0 5.726562 -0.726562 5.726562 -1.792969 C 5.726562 -2.589844 5.140625 -3.316406 4.433594 -3.425781 C 5.039062 -3.554688 5.597656 -4.113281 5.597656 -4.949219 C 5.597656 -5.945312 4.890625 -6.644531 3.734375 -6.644531 L 0.777344 -6.644531 L 0.777344 0 Z M 1.605469 -5.90625 L 3.59375 -5.90625 C 4.34375 -5.90625 4.742188 -5.429688 4.742188 -4.832031 C 4.742188 -4.222656 4.34375 -3.765625 3.59375 -3.765625 L 1.605469 -3.765625 Z M 1.605469 -3.027344 L 3.636719 -3.027344 C 4.453125 -3.027344 4.871094 -2.488281 4.871094 -1.882812 C 4.871094 -1.175781 4.414062 -0.738281 3.636719 -0.738281 L 1.605469 -0.738281 Z M 1.605469 -3.027344 "/></g></g></g><g fill="#01402e" fill-opacity="1"><g transform="translate(126.478818, 285.2684)"><g><path d="M 0.777344 -2.578125 C 0.777344 -0.945312 1.683594 0.121094 3.484375 0.121094 C 5.289062 0.121094 6.195312 -0.9375 6.195312 -2.589844 L 6.195312 -6.644531 L 5.367188 -6.644531 L 5.367188 -2.597656 C 5.367188 -1.382812 4.710938 -0.617188 3.484375 -0.617188 C 2.261719 -0.617188 1.605469 -1.382812 1.605469 -2.597656 L 1.605469 -6.644531 L 0.777344 -6.644531 Z M 0.777344 -2.578125 "/></g></g></g><g fill="#01402e" fill-opacity="1"><g transform="translate(136.43203, 285.2684)"><g><path d="M 1.605469 0 L 1.605469 -6.644531 L 0.777344 -6.644531 L 0.777344 0 Z M 1.605469 0 "/></g></g></g><g fill="#01402e" fill-opacity="1"><g transform="translate(141.798656, 285.2684)"><g><path d="M 4.691406 0 L 4.691406 -0.738281 L 1.605469 -0.738281 L 1.605469 -6.644531 L 0.777344 -6.644531 L 0.777344 0 Z M 4.691406 0 "/></g></g></g><g fill="#01402e" fill-opacity="1"><g transform="translate(149.86151, 285.2684)"><g><path d="M 3.046875 0 C 5.109375 0 6.453125 -1.425781 6.453125 -3.316406 C 6.453125 -5.199219 5.109375 -6.644531 3.046875 -6.644531 L 0.777344 -6.644531 L 0.777344 0 Z M 1.605469 -5.90625 L 3.046875 -5.90625 C 4.691406 -5.90625 5.597656 -4.75 5.597656 -3.316406 C 5.597656 -1.890625 4.660156 -0.738281 3.046875 -0.738281 L 1.605469 -0.738281 Z M 1.605469 -5.90625 "/></g></g></g><g fill="#01402e" fill-opacity="1"><g transform="translate(159.814722, 285.2684)"><g><path d="M 1.605469 0 L 1.605469 -6.644531 L 0.777344 -6.644531 L 0.777344 0 Z M 1.605469 0 "/></g></g></g><g fill="#01402e" fill-opacity="1"><g transform="translate(165.181349, 285.2684)"><g><path d="M 6.273438 0 L 6.273438 -6.644531 L 5.449219 -6.644531 L 5.449219 -1.394531 L 1.625 -6.644531 L 0.777344 -6.644531 L 0.777344 0 L 1.605469 0 L 1.605469 -5.359375 L 5.476562 0 Z M 6.273438 0 "/></g></g></g><g fill="#01402e" fill-opacity="1"><g transform="translate(175.214154, 285.2684)"><g><path d="M 0.507812 -3.316406 C 0.507812 -1.253906 2.03125 0.128906 3.925781 0.128906 C 5.011719 0.128906 5.917969 -0.328125 6.535156 -1.015625 L 6.535156 -3.417969 L 3.425781 -3.417969 L 3.425781 -2.679688 L 5.707031 -2.679688 L 5.707031 -1.324219 C 5.378906 -0.996094 4.722656 -0.609375 3.925781 -0.609375 C 2.46875 -0.609375 1.363281 -1.742188 1.363281 -3.316406 C 1.363281 -4.898438 2.46875 -6.015625 3.925781 -6.015625 C 4.722656 -6.015625 5.429688 -5.636719 5.847656 -5.097656 L 6.503906 -5.507812 C 5.917969 -6.234375 5.097656 -6.753906 3.925781 -6.753906 C 2.03125 -6.753906 0.507812 -5.378906 0.507812 -3.316406 Z M 0.507812 -3.316406 "/></g></g></g><g fill="#01402e" fill-opacity="1"><g transform="translate(185.296696, 285.2684)"><g/></g></g><g fill="#01402e" fill-opacity="1"><g transform="translate(190.852356, 285.2684)"><g><path d="M 7.28125 0 L 7.28125 -6.644531 L 6.09375 -6.644531 L 4.023438 -1.582031 L 1.960938 -6.644531 L 0.777344 -6.644531 L 0.777344 0 L 1.605469 0 L 1.605469 -5.527344 L 3.855469 0 L 4.191406 0 L 6.453125 -5.527344 L 6.453125 0 Z M 7.28125 0 "/></g></g></g><g fill="#01402e" fill-opacity="1"><g transform="translate(201.890022, 285.2684)"><g><path d="M 6.464844 0 L 3.785156 -6.644531 L 2.757812 -6.644531 L 0.0898438 0 L 1.007812 0 L 1.59375 -1.472656 L 4.960938 -1.472656 L 5.546875 0 Z M 4.710938 -2.210938 L 1.832031 -2.210938 L 3.277344 -5.90625 Z M 4.710938 -2.210938 "/></g></g></g><g fill="#01402e" fill-opacity="1"><g transform="translate(211.425364, 285.2684)"><g><path d="M 3.246094 0 L 3.246094 -5.90625 L 5.359375 -5.90625 L 5.359375 -6.644531 L 0.320312 -6.644531 L 0.320312 -5.90625 L 2.421875 -5.90625 L 2.421875 0 Z M 3.246094 0 "/></g></g></g><g fill="#01402e" fill-opacity="1"><g transform="translate(220.085177, 285.2684)"><g><path d="M 5.128906 0 L 5.128906 -0.738281 L 1.605469 -0.738281 L 1.605469 -3.027344 L 5.058594 -3.027344 L 5.058594 -3.765625 L 1.605469 -3.765625 L 1.605469 -5.90625 L 5.128906 -5.90625 L 5.128906 -6.644531 L 0.777344 -6.644531 L 0.777344 0 Z M 5.128906 0 "/></g></g></g><g fill="#01402e" fill-opacity="1"><g transform="translate(228.735033, 285.2684)"><g><path d="M 5.597656 0 L 3.804688 -2.710938 C 4.710938 -2.789062 5.527344 -3.445312 5.527344 -4.640625 C 5.527344 -5.867188 4.660156 -6.644531 3.445312 -6.644531 L 0.777344 -6.644531 L 0.777344 0 L 1.605469 0 L 1.605469 -2.640625 L 2.929688 -2.640625 L 4.621094 0 Z M 4.671875 -4.640625 C 4.671875 -3.894531 4.132812 -3.367188 3.347656 -3.367188 L 1.605469 -3.367188 L 1.605469 -5.90625 L 3.347656 -5.90625 C 4.132812 -5.90625 4.671875 -5.386719 4.671875 -4.640625 Z M 4.671875 -4.640625 "/></g></g></g><g fill="#01402e" fill-opacity="1"><g transform="translate(237.772912, 285.2684)"><g><path d="M 1.605469 0 L 1.605469 -6.644531 L 0.777344 -6.644531 L 0.777344 0 Z M 1.605469 0 "/></g></g></g><g fill="#01402e" fill-opacity="1"><g transform="translate(243.139538, 285.2684)"><g><path d="M 6.464844 0 L 3.785156 -6.644531 L 2.757812 -6.644531 L 0.0898438 0 L 1.007812 0 L 1.59375 -1.472656 L 4.960938 -1.472656 L 5.546875 0 Z M 4.710938 -2.210938 L 1.832031 -2.210938 L 3.277344 -5.90625 Z M 4.710938 -2.210938 "/></g></g></g><g fill="#01402e" fill-opacity="1"><g transform="translate(252.674881, 285.2684)"><g><path d="M 4.691406 0 L 4.691406 -0.738281 L 1.605469 -0.738281 L 1.605469 -6.644531 L 0.777344 -6.644531 L 0.777344 0 Z M 4.691406 0 "/></g></g></g><path stroke-linecap="butt" transform="matrix(0.75, 0, 0, 0.75, 78.594491, 227.624985)" fill="none" stroke-linejoin="miter" d="M -0.000988452 1.00002 L 89.842767 1.00002 " stroke="#01402e" stroke-width="2" stroke-opacity="1" stroke-miterlimit="4"/><path stroke-linecap="butt" transform="matrix(0.75, 0, 0, 0.75, 78.594491, 281.5184)" fill="none" stroke-linejoin="miter" d="M -0.000988452 1.001509 L 43.915681 1.001509 " stroke="#01402e" stroke-width="2" stroke-opacity="1" stroke-miterlimit="4"/><path stroke-linecap="butt" transform="matrix(0.75, 0, 0, 0.75, 260.979422, 281.5184)" fill="none" stroke-linejoin="miter" d="M 0.00139598 1.001509 L 43.918066 1.001509 " stroke="#01402e" stroke-width="2" stroke-opacity="1" stroke-miterlimit="4"/><path stroke-linecap="butt" transform="matrix(0.749997, -0.00227383, 0.00227383, 0.749997, 230.816401, 227.624985)" fill="none" stroke-linejoin="miter" d="M 0.00218302 1.000031 L 84.132782 0.999888 " stroke="#01402e" stroke-width="2" stroke-opacity="1" stroke-miterlimit="4"/></svg>
